<svg xmlns="http://www.w3.org/2000/svg" xmlns:xlink="http://www.w3.org/1999/xlink" width="152.844" height="174.596" viewBox="0 0 152.844 174.596"><defs><style>.a{fill:url(#a);}.b{isolation:isolate;}.c{fill:url(#e);}.d{fill:url(#f);}.e{filter:url(#b);}</style><linearGradient id="a" x1="-1.464" y1="1.531" x2="-1.162" y2="0.905" gradientUnits="objectBoundingBox"><stop offset="0" stop-color="#212121"/><stop offset="1" stop-color="#59535c"/></linearGradient><filter id="b" x="0.067" y="6.905" width="152.778" height="167.691" filterUnits="userSpaceOnUse"><feOffset dx="25" dy="41" input="SourceAlpha"/><feGaussianBlur stdDeviation="10" result="c"/><feFlood flood-opacity="0.302"/><feComposite operator="in" in2="c"/><feComposite in="SourceGraphic"/></filter><linearGradient id="e" x1="-0.625" y1="3.053" x2="-0.29" y2="1.769" gradientUnits="objectBoundingBox"><stop offset="0" stop-color="#212121"/><stop offset="1" stop-color="#444345"/></linearGradient><linearGradient id="f" x1="0.331" y1="0.842" x2="-0.55" y2="2.851" gradientUnits="objectBoundingBox"><stop offset="0" stop-color="#212121"/><stop offset="1" stop-color="#363e43"/></linearGradient></defs><g class="e" transform="matrix(1, 0, 0, 1, 0, 0)"><path class="a" d="M57.649,48.893,0,40.816,23.576,0,81.224,8.078l11.553,47.8L69.2,96.691Zm-46.1,39.719L0,40.816l57.649,8.078L69.2,96.691Z" transform="translate(5.07 6.9)"/></g><g transform="translate(0 0)"><g class="b" transform="translate(0)"><path class="a" d="M358.163,66.1l-25.4,43.605L320.322,58.643l25.4-43.605Z" transform="translate(-258.223 -6.407)"/><path class="c" d="M309.863,10.054l-25.4,43.605-62.1-8.63,25.4-43.605Z" transform="translate(-222.368 -1.424)"/><path class="d" d="M296.912,129.9l-62.1-8.63L222.368,70.207l62.1,8.63Z" transform="translate(-222.368 -26.602)"/></g></g></svg>