<svg xmlns="http://www.w3.org/2000/svg" width="20.243" height="20.242" viewBox="0 0 20.243 20.242"><defs><style>.a{fill:#002b3c;}.b{fill:#fff;}</style></defs><path class="a" d="M209.452,74.55V64.9a5.31,5.31,0,0,1,5.295-5.295H224.4a5.311,5.311,0,0,1,5.3,5.295V74.55a5.311,5.311,0,0,1-5.3,5.295h-3.244l-1.7-.414-1.463.414h-3.245A5.31,5.31,0,0,1,209.452,74.55Z" transform="translate(-209.452 -59.603)"/><g transform="translate(5.97 4.286)"><path class="b" d="M226.168,74.888l.449-2.926h-2.807v-1.9a1.463,1.463,0,0,1,1.65-1.581h1.276V65.992a15.552,15.552,0,0,0-2.266-.2,3.572,3.572,0,0,0-3.823,3.938v2.23h-2.57v2.926h2.57v6.863h3.163V74.888Z" transform="translate(-218.076 -65.794)"/></g></svg>