<svg xmlns="http://www.w3.org/2000/svg" width="20.243" height="20.243" viewBox="0 0 20.243 20.243"><defs><style>.a{fill:#002b3c;}.b{fill:#fff;}</style></defs><g transform="translate(0)"><rect class="a" width="20.243" height="20.243" rx="7.649" transform="translate(20.243 0) rotate(90)"/><g transform="translate(4.187 4.187)"><path class="b" d="M270.8,68.713a.7.7,0,1,0,.7.7A.7.7,0,0,0,270.8,68.713Z" transform="translate(-261.726 -66.594)"/><path class="b" d="M265.343,70a2.923,2.923,0,1,0,2.923,2.923A2.926,2.926,0,0,0,265.343,70Zm0,4.8a1.872,1.872,0,1,1,1.872-1.872A1.874,1.874,0,0,1,265.343,74.8Z" transform="translate(-259.36 -66.991)"/><path class="b" d="M266.3,77.52h-4.738A3.569,3.569,0,0,1,258,73.955V69.217a3.569,3.569,0,0,1,3.565-3.565H266.3a3.569,3.569,0,0,1,3.565,3.565v4.738A3.569,3.569,0,0,1,266.3,77.52Zm-4.738-10.751a2.451,2.451,0,0,0-2.448,2.448v4.738a2.45,2.45,0,0,0,2.448,2.448H266.3a2.451,2.451,0,0,0,2.448-2.448V69.217a2.451,2.451,0,0,0-2.448-2.448Z" transform="translate(-258 -65.652)"/></g></g></svg>