<svg xmlns="http://www.w3.org/2000/svg" width="20.243" height="20.243" viewBox="0 0 20.243 20.243"><defs><style>.a{fill:#002b3c;}.b{fill:#fff;}</style></defs><rect class="a" width="20.243" height="20.243" rx="7.649" transform="translate(20.243 0) rotate(90)"/><path class="b" d="M345.09,70.11h1.96v6.3h-1.96Zm.98-3.129a1.135,1.135,0,1,1-1.137,1.134,1.134,1.134,0,0,1,1.137-1.134" transform="translate(-339.213 -61.874)"/><path class="b" d="M349.766,71.432h1.877v.861h.026a2.059,2.059,0,0,1,1.854-1.017c1.982,0,2.347,1.3,2.347,3v3.454h-1.956V74.667c0-.73-.015-1.67-1.018-1.67-1.019,0-1.174.8-1.174,1.616v3.115h-1.956Z" transform="translate(-340.701 -63.196)"/></svg>