<svg xmlns="http://www.w3.org/2000/svg" width="156.045" height="30.249" viewBox="0 0 156.045 30.249"><defs><style>.a{fill:#002b3c;}</style></defs><path class="a" d="M-4744.361-142.246l-4.07-13.481h0l-.247-.816h-9.293v14.3h-3.1v-30.06h14.917a3.371,3.371,0,0,1,3.452,3.184v9.358a3.322,3.322,0,0,1-2.479,3.076l-1.789.529.809.46a3.043,3.043,0,0,1,1.451,1.8l3.554,11.653Zm-13.611-17.4h12.167V-169.2h-12.167Z" transform="translate(4761.072 172.495)"/><path class="a" d="M-4689.392-143.3a2,2,0,0,1-1.506.886l-.087.007h-8.492l.944-3.114h5.968l-6.735-21.761-8.086,24.875h-3.31l10.014-30.249h2.809l8.73,27.628A2,2,0,0,1-4689.392-143.3Z" transform="translate(4738.126 172.653)"/><path class="a" d="M-4638.546-169.454v23.816a3.4,3.4,0,0,1-3.467,3.234H-4657v-30.249h14.985A3.386,3.386,0,0,1-4638.546-169.454Zm-3.114-.084h-12.222v24.02h12.222Z" transform="translate(4713.667 172.653)"/><path class="a" d="M-4590.986-145.357l.938,3.1h-12.287a3.261,3.261,0,0,1-3.326-3.181v-26.9h3.1v26.981Z" transform="translate(4690.283 172.51)"/><path class="a" d="M-4541.179-169.155v23.682a2.914,2.914,0,0,1-.284,1.249,3.165,3.165,0,0,1-.573.842,3.552,3.552,0,0,1-2.592,1.124h-11.449a3.364,3.364,0,0,1-3.448-3.179V-169.12a3.381,3.381,0,0,1,3.448-3.214h11.449a3.575,3.575,0,0,1,2.592,1.111,3.187,3.187,0,0,1,.573.83A2.866,2.866,0,0,1-4541.179-169.155Zm-3.1-.084h-12.156v23.886h12.156Z" transform="translate(4669.269 172.508)"/><path class="a" d="M-4504.909-172.653h14.983v3.115h-15.336v10.452h12.015l-.839,2.525h-11.176V-142.4h-3.115v-27.014A3.4,3.4,0,0,1-4504.909-172.653Z" transform="translate(4645.971 172.653)"/></svg>