<svg xmlns="http://www.w3.org/2000/svg" width="129.937" height="101.785" viewBox="0 0 129.937 101.785"><defs><style>.a{fill:#002b3c;}.b{fill:#cb6b36;}</style></defs><g transform="translate(-0.447 0)"><g transform="translate(0.447 76.597)"><path class="a" d="M-4719.267-371.546l-3.389-11.226h0l-.206-.679h-7.738v11.9h-2.582v-25.03h12.421a2.806,2.806,0,0,1,2.874,2.65v7.793a2.766,2.766,0,0,1-2.064,2.562l-1.489.44.673.383a2.535,2.535,0,0,1,1.208,1.5l2.959,9.7Zm-11.334-14.487h10.131v-7.961H-4730.6Z" transform="translate(4733.183 396.734)"/><path class="a" d="M-4674.872-372.412a1.667,1.667,0,0,1-1.254.738l-.072.006h-7.071l.786-2.593h4.97l-5.607-18.12-6.733,20.714h-2.756l8.338-25.188h2.338l7.27,23.005A1.666,1.666,0,0,1-4674.872-372.412Z" transform="translate(4715.453 396.856)"/><path class="a" d="M-4634-394.192v19.831a2.833,2.833,0,0,1-2.887,2.693h-12.478v-25.188h12.478A2.819,2.819,0,0,1-4634-394.192Zm-2.593-.07h-10.177v20h10.177Z" transform="translate(4696.553 396.856)"/><path class="a" d="M-4595.8-374.135l.781,2.578h-10.23a2.715,2.715,0,0,1-2.769-2.649v-22.4h2.579v22.467Z" transform="translate(4678.484 396.745)"/><path class="a" d="M-4555.587-393.952v19.72a2.427,2.427,0,0,1-.236,1.039,2.639,2.639,0,0,1-.478.7,2.958,2.958,0,0,1-2.158.936h-9.534a2.8,2.8,0,0,1-2.87-2.647v-19.72a2.815,2.815,0,0,1,2.87-2.676h9.534a2.978,2.978,0,0,1,2.158.925,2.665,2.665,0,0,1,.478.691A2.392,2.392,0,0,1-4555.587-393.952Zm-2.578-.07h-10.122v19.89h10.122Z" transform="translate(4662.246 396.744)"/><path class="a" d="M-4526.783-396.856h12.476v2.594h-12.77v8.7h10l-.7,2.1h-9.305v11.788h-2.594v-22.494A2.834,2.834,0,0,1-4526.783-396.856Z" transform="translate(4644.243 396.856)"/></g><path class="b" d="M-4614.27-528.23a24.635,24.635,0,0,1-.182,2.555,24.387,24.387,0,0,1-1.489,5.887,26.944,26.944,0,0,0-5.293-11.2q-.793-.991-1.691-1.923l-1.81,1.81a24.5,24.5,0,0,1,1.678,1.935,24.5,24.5,0,0,1,5.112,13.379,25,25,0,0,1-2.027,2.8q-.594-.878-1.262-1.72-.793-.991-1.691-1.923l-1.81,1.809a24.631,24.631,0,0,1,1.678,1.936c.462.593.89,1.205,1.291,1.829a24.751,24.751,0,0,1-4.174,3.268,24.438,24.438,0,0,1-12.905,3.671,24.435,24.435,0,0,1-12.905-3.671,24.709,24.709,0,0,1-3.508-2.635,24.5,24.5,0,0,1,1.688-2.462,24.823,24.823,0,0,1,1.677-1.936l-1.809-1.809q-.9.93-1.691,1.923a26.994,26.994,0,0,0-1.724,2.427,25.087,25.087,0,0,1-1.628-2.015v-.049a24.53,24.53,0,0,1,5.176-14.82,24.692,24.692,0,0,1,1.677-1.935l-1.809-1.81q-.9.931-1.691,1.923a26.973,26.973,0,0,0-5.6,12.928,24.429,24.429,0,0,1-2.243-7.613,24.771,24.771,0,0,1-.182-2.555h-2.559q.022,1.294.164,2.555a26.958,26.958,0,0,0,4.533,12.209,27.412,27.412,0,0,0,2.886,3.553q-.188-1.109-.273-2.228.083,1.077.262,2.146c0,.027.007.055.012.082.609.632,1.253,1.229,1.92,1.8a27.1,27.1,0,0,0,2.823,2.132l3.858,6.682h-7.066l18.018,31.207,18.018-31.207h-7.066l3.858-6.682a27.381,27.381,0,0,0,3.571-2.79q.991-.914,1.889-1.919c.184-.206.366-.414.543-.625a27.277,27.277,0,0,0,2.675-3.815,26.936,26.936,0,0,0,3.484-10.546q.141-1.262.164-2.555Zm-44.463,15.015q.019.527.06,1.053C-4658.7-512.512-4658.721-512.863-4658.733-513.215Zm33.479,16.473-13.592,23.542-13.592-23.542h4.116l9.476,16.413,9.476-16.413Zm-5.59-2.555-1.476,2.555-6.526,11.3-6.526-11.3-1.476-2.555-2.54-4.4a27.005,27.005,0,0,0,10.542,2.131,27,27,0,0,0,10.541-2.131Z" transform="translate(4703.976 532.913)"/></g></svg>