<svg xmlns="http://www.w3.org/2000/svg" width="20.243" height="20.243" viewBox="0 0 20.243 20.243"><defs><style>.a{fill:#002b3c;}.b{fill:#fff;}</style></defs><rect class="a" width="20.243" height="20.243" rx="7.649" transform="translate(20.243 0) rotate(90)"/><path class="b" d="M312.247,68.73a4.576,4.576,0,0,1-1.117.318c.179-.03.443-.355.549-.487a2.054,2.054,0,0,0,.37-.676c.01-.019.017-.044,0-.058a.064.064,0,0,0-.06,0,5.7,5.7,0,0,1-1.324.507.088.088,0,0,1-.091-.024,1.044,1.044,0,0,0-.116-.118,2.341,2.341,0,0,0-.641-.392,2.233,2.233,0,0,0-.984-.159,2.346,2.346,0,0,0-.933.264,2.4,2.4,0,0,0-.752.615,2.307,2.307,0,0,0-.449.9,2.428,2.428,0,0,0-.024.95c.007.053,0,.06-.046.053a7.073,7.073,0,0,1-4.549-2.315c-.053-.061-.082-.061-.125,0a2.307,2.307,0,0,0,.393,2.725c.089.084.181.169.28.246a2.318,2.318,0,0,1-.878-.246c-.053-.034-.08-.015-.084.046a1.4,1.4,0,0,0,.015.26,2.332,2.332,0,0,0,1.437,1.859,1.344,1.344,0,0,0,.292.089,2.6,2.6,0,0,1-.861.026c-.063-.012-.087.019-.063.08a2.422,2.422,0,0,0,1.809,1.515c.082.015.164.015.246.034,0,.007-.01.007-.015.015a2.866,2.866,0,0,1-1.236.654,4.419,4.419,0,0,1-1.875.24c-.1-.015-.123-.014-.15,0s0,.042.029.067c.127.084.258.159.39.232a6.208,6.208,0,0,0,1.254.5,6.68,6.68,0,0,0,6.484-1.516,6.807,6.807,0,0,0,1.794-4.964c0-.071.084-.111.134-.148a4.405,4.405,0,0,0,.883-.918.282.282,0,0,0,.058-.176v-.01C312.292,68.7,312.292,68.71,312.247,68.73Z" transform="translate(-296.533 -62.077)"/></svg>